<svg width="22" height="24" viewBox="0 0 22 24" fill="none" xmlns="http://www.w3.org/2000/svg">
<path d="M16 1V6M6 1V6M1 11H21M4.75 14.75H4.76625M8.51221 14.75H8.51846M12.2622 14.75H12.2685M16.0189 14.75H16.0252M12.2689 18.5H12.2752M4.76221 18.5H4.76846M8.51221 18.5H8.51846M1 6C1 5.33696 1.26339 4.70107 1.73223 4.23223C2.20107 3.76339 2.83696 3.5 3.5 3.5H18.5C19.163 3.5 19.7989 3.76339 20.2678 4.23223C20.7366 4.70107 21 5.33696 21 6V21C21 21.663 20.7366 22.2989 20.2678 22.7678C19.7989 23.2366 19.163 23.5 18.5 23.5H3.5C2.83696 23.5 2.20107 23.2366 1.73223 22.7678C1.26339 22.2989 1 21.663 1 21V6Z" stroke="#F0F6FC" stroke-linecap="round" stroke-linejoin="round"/>
</svg>
