<svg width="22" height="28" viewBox="0 0 22 28" fill="none" xmlns="http://www.w3.org/2000/svg">
<path d="M6.71429 3.85714H3.85714C3.09938 3.85714 2.37266 4.15816 1.83684 4.69398C1.30102 5.2298 1 5.95652 1 6.71429V23.8571C1 24.6149 1.30102 25.3416 1.83684 25.8774C2.37266 26.4133 3.09938 26.7143 3.85714 26.7143H18.1429C18.9006 26.7143 19.6273 26.4133 20.1632 25.8774C20.699 25.3416 21 24.6149 21 23.8571V6.71429C21 5.95652 20.699 5.2298 20.1632 4.69398C19.6273 4.15816 18.9006 3.85714 18.1429 3.85714H15.2857M6.71429 3.85714C6.71429 3.09938 7.01531 2.37266 7.55112 1.83684C8.08694 1.30102 8.81367 1 9.57143 1H12.4286C13.1863 1 13.9131 1.30102 14.4489 1.83684C14.9847 2.37266 15.2857 3.09938 15.2857 3.85714M6.71429 3.85714C6.71429 4.6149 7.01531 5.34163 7.55112 5.87745C8.08694 6.41327 8.81367 6.71429 9.57143 6.71429H12.4286C13.1863 6.71429 13.9131 6.41327 14.4489 5.87745C14.9847 5.34163 15.2857 4.6149 15.2857 3.85714M6.71429 13.8571H6.72857M12.4286 13.8571H15.2857M6.71429 19.5714H6.72857M12.4286 19.5714H15.2857" stroke="#F0F6FC" stroke-linecap="round" stroke-linejoin="round"/>
</svg>
