<svg width="22" height="22" viewBox="0 0 22 22" fill="none" xmlns="http://www.w3.org/2000/svg">
<path d="M8.77778 6V3.5C8.77778 2.83696 9.0119 2.20107 9.42865 1.73223C9.8454 1.26339 10.4106 1 11 1H18.7778C19.3671 1 19.9324 1.26339 20.3491 1.73223C20.7659 2.20107 21 2.83696 21 3.5V18.5C21 19.163 20.7659 19.7989 20.3491 20.2678C19.9324 20.7366 19.3671 21 18.7778 21H11C10.4106 21 9.8454 20.7366 9.42865 20.2678C9.0119 19.7989 8.77778 19.163 8.77778 18.5V16M14.3333 11H1M1 11L4.33333 7.25M1 11L4.33333 14.75" stroke="#F0F6FC" stroke-linecap="round" stroke-linejoin="round"/>
</svg>
